<svg xmlns="http://www.w3.org/2000/svg" version="1.1" xmlns:xlink="http://www.w3.org/1999/xlink" xmlns:svgjs="http://svgjs.com/svgjs" width="512" height="512" x="0" y="0" viewBox="0 0 24 24" style="enable-background:new 0 0 512 512" xml:space="preserve" class=""><g><path xmlns="http://www.w3.org/2000/svg" d="m20 6.528v12.972c0 1.3807-1.1193 2.5-2.5 2.5h-11c-1.38071 0-2.5-1.1193-2.5-2.5v-14.99997c0-1.38072 1.11929-2.5 2.5-2.5h8.972c.1328-.00842.2709.03584.3816.14644l4 4c.1106.11061.1548.24879.1464.38153zm-5-3.52797h-8.5c-.82843 0-1.5.67157-1.5 1.5v14.99997c0 .8285.67157 1.5 1.5 1.5h11c.8284 0 1.5-.6715 1.5-1.5v-12.49997h-3.5c-.2761 0-.5-.22386-.5-.5zm1 .7071v2.2929h2.2929zm-8.5 12.29287c-.27614 0-.5-.2238-.5-.5v-3c0-.2761.22386-.5.5-.5h1.34861l1.37399-.916c.0822-.0548.1787-.084.2774-.084h1c.2761 0 .5.2239.5.5v5c0 .2762-.2239.5-.5.5h-1c-.0987 0-.1952-.0292-.2774-.0839l-1.37399-.9161zm.5-3v2h1c.09871 0 .19522.0292.27735.084l1.37405.916h.3486v-4h-.3486l-1.37405.9161c-.08213.0547-.17864.0839-.27735.0839zm5.8536 3.8536c-.1953.1952-.5119.1952-.7072 0-.1952-.1953-.1952-.5119 0-.7071.5713-.5713.8536-1.277.8536-2.1465s-.2823-1.5751-.8536-2.1464c-.1952-.1953-.1952-.5119 0-.7071.1953-.1953.5119-.1953.7072 0 .762.762 1.1464 1.723 1.1464 2.8535s-.3844 2.0915-1.1464 2.8536zm.2928-7.00002c-.1952-.19526-.1952-.51185 0-.70711.1953-.19526.5119-.19526.7072 0 1.424 1.42403 2.1464 3.04943 2.1464 4.85353 0 1.8042-.7224 3.4295-2.1464 4.8536-.1953.1952-.5119.1952-.7072 0-.1952-.1953-.1952-.5119 0-.7071 1.2426-1.2426 1.8536-2.6173 1.8536-4.1465s-.611-2.9038-1.8536-4.14642z" fill="#000000" data-original="#000000" class=""></path></g></svg>
