<svg xmlns="http://www.w3.org/2000/svg" version="1.1" xmlns:xlink="http://www.w3.org/1999/xlink"
     xmlns:svgjs="http://svgjs.com/svgjs" width="512" height="512" x="0" y="0" viewBox="0 0 64.001 64.001"
     style="enable-background:new 0 0 512 512" xml:space="preserve" class=""><g><g xmlns="http://www.w3.org/2000/svg"><path d="m55.994 13.887c-.018-.151-.196-1.502-1.115-2.422l-10.343-10.343c-.919-.919-2.271-1.098-2.422-1.115-.037-.004-.076-.006-.114-.006h-29c-2.757 0-5 2.243-5 5v54c0 2.757 2.243 5 5 5h38c2.757 0 5-2.243 5-5v-45c0-.038-.002-.076-.006-.114z" fill="#9ce4d5" data-original="#ffdaaa" class=""></path><path
        d="m54.879 11.465-10.343-10.343c-.919-.919-2.271-1.098-2.422-1.115-.285-.035-.567.058-.779.248-.213.189-.335.461-.335.746v9c0 2.757 2.243 5 5 5h9c.285 0 .557-.122.746-.335.19-.212.28-.496.248-.779-.018-.151-.196-1.502-1.115-2.422z"
        fill="#da6161" data-original="#ffb655" class=""></path></g><g xmlns="http://www.w3.org/2000/svg"><path d="m34.526 22.15c-.295-.182-.664-.198-.973-.044l-7.788 3.894h-6.765c-.552 0-1 .448-1 1v10c0 .552.448 1 1 1h6.764l7.788 3.895c.141.07.295.105.447.105.183 0 .365-.05.526-.149.296-.182.475-.503.475-.85v-18c0-.347-.179-.669-.474-.851z" fill="#5e5850" data-original="#957856" class=""></path>
    <g fill="#ffb655"><path d="m38 24.001c-.552 0-1 .448-1 1s.448 1 1 1c3.309 0 6 2.691 6 6s-2.691 6-6 6c-.552 0-1 .448-1 1s.448 1 1 1c4.411 0 8-3.589 8-8s-3.589-8-8-8z" fill="#da6161" data-original="#ffb655" class=""></path>
        <path d="m38 34.001c-.552 0-1 .448-1 1s.448 1 1 1c2.206 0 4-1.794 4-4s-1.794-4-4-4c-.552 0-1 .448-1 1s.448 1 1 1c1.103 0 2 .897 2 2s-.897 2-2 2z"
              fill="#da6161" data-original="#ffb655" class=""></path></g></g></g></svg>
