<svg xmlns="http://www.w3.org/2000/svg" version="1.1" xmlns:xlink="http://www.w3.org/1999/xlink" xmlns:svgjs="http://svgjs.com/svgjs" width="512" height="512" x="0" y="0" viewBox="0 0 16.933333 16.933333" style="enable-background:new 0 0 512 512" xml:space="preserve" class=""><g><g xmlns="http://www.w3.org/2000/svg" id="layer1" transform="translate(0 -280.067)"><path id="path828" d="m31.919922 2c-1.153515.015118-2.281568.3658097-3.248047 1.0097656l-24 15.9980464c-1.6692264 1.112656-2.671875 2.988635-2.671875 4.990235v32c0 3.29057 2.7113826 6.001953 6.0019531 6.001953h47.9960939c3.29057 0 6.001953-2.711383 6.001953-6.001953v-19.998047c.06052-2.726511-4.060518-2.726511-4 0v19.998047c0 1.129096-.872872 2-2.001953 2h-13.998047v-13.998047c0-3.289436-2.710594-6-6-6h-8c-3.289408 0-6 2.710564-6 6v8c-.03824 2.704636 4.038241 2.704636 4 0v-8c0-1.142551.857464-2 2-2h8c1.142536 0 2 .857449 2 2v13.998047h-29.9980469c-1.1290806 0-2-.870904-2-2v-32c0-.673134.3284116-1.297122.8847657-1.667969l24.0000002-15.9980468c.320398-.2135433.699019-.3263619 1.091797-.3320312.40278-.00756.7993.1071494 1.136718.3320312l23.998047 15.9980468c.556354.370772.886719.994835.886719 1.667969v4c-.06052 2.726511 4.060518 2.726511 4 0v-4c0-2.0016-1.00265-3.877579-2.671875-4.990235l-23.998047-15.9980464c-1.00794-.6718866-2.196273-1.0268869-3.410156-1.0097656z" transform="matrix(.265 0 0 .265 0 280.067)" font-variant-ligatures="normal" font-variant-position="normal" font-variant-caps="normal" font-variant-numeric="normal" font-variant-alternates="normal" font-feature-settings="normal" text-indent="0" text-align="start" text-decoration-line="none" text-decoration-style="solid" text-decoration-color="rgb(0,0,0)" text-transform="none" text-orientation="mixed" white-space="normal" shape-padding="0" isolation="auto" mix-blend-mode="normal" solid-color="rgb(0,0,0)" solid-opacity="1" vector-effect="none" fill="#000000" data-original="#000000" class=""></path></g></g></svg>
