<svg xmlns="http://www.w3.org/2000/svg" version="1.1" xmlns:xlink="http://www.w3.org/1999/xlink" xmlns:svgjs="http://svgjs.com/svgjs" width="512" height="512" x="0" y="0" viewBox="0 0 16.933333 16.933333" style="enable-background:new 0 0 512 512" xml:space="preserve" class=""><g><g xmlns="http://www.w3.org/2000/svg" id="layer1" transform="translate(0 -280.067)"><path id="path828" d="m31.919922 2c-1.153515.0151181-2.281568.3658097-3.248047 1.0097656l-24 15.9980464c-1.6692264 1.112657-2.671875 2.988635-2.671875 4.990235v32c-.0005004 3.29091 2.7110107 6.002482 6.0019531 6.001953h15.9980469v-18c0-2.215972 1.784028-4 4-4h8c2.215972 0 4 1.784028 4 4v18h15.998047c3.290944.000529 6.002452-2.711043 6.001953-6.001953v-32c0-2.0016-1.00265-3.877578-2.671875-4.990235l-23.998047-15.9980464c-1.00794-.6718866-2.196273-1.0268869-3.410156-1.0097656z" transform="matrix(.265 0 0 .265 0 280.067)" font-variant-ligatures="normal" font-variant-position="normal" font-variant-caps="normal" font-variant-numeric="normal" font-variant-alternates="normal" font-feature-settings="normal" text-indent="0" text-align="start" text-decoration-line="none" text-decoration-style="solid" text-decoration-color="rgb(0,0,0)" text-transform="none" text-orientation="mixed" white-space="normal" shape-padding="0" isolation="auto" mix-blend-mode="normal" solid-color="rgb(0,0,0)" solid-opacity="1" vector-effect="none" fill="#000000" data-original="#000000"></path></g></g></svg>
