<svg xmlns="http://www.w3.org/2000/svg" version="1.1" xmlns:xlink="http://www.w3.org/1999/xlink" xmlns:svgjs="http://svgjs.com/svgjs" width="512" height="512" x="0" y="0" viewBox="0 0 512 512" style="enable-background:new 0 0 512 512" xml:space="preserve" class=""><g><g xmlns="http://www.w3.org/2000/svg"><path d="m467 0c-20.451 0-37.562 13.795-43.017 32.509-204.922 20.249-371.225 186.552-391.474 391.474-18.714 5.455-32.509 22.566-32.509 43.017 0 24.814 20.186 45 45 45s45-20.186 45-45c0-18.616-11.362-34.625-27.513-41.462 19.414-189.672 173.379-343.637 363.051-363.051 6.837 16.151 22.846 27.513 41.462 27.513 24.814 0 45-20.186 45-45s-20.186-45-45-45z" fill="#000000" data-original="#000000" class=""></path></g></g></svg>
