<svg xmlns="http://www.w3.org/2000/svg" width="122" height="38" viewBox="0 0 122 38">
    <g fill="#FFF" fill-rule="nonzero">
        <path d="M6.297 17.882l5.118 10.929 5.117-10.93h6.106l-9.787 19.396H9.978L.19 17.882zM42.436 19.987c1.93 1.748 3.277 4.436 3.277 7.614 0 3.137-1.347 5.824-3.277 7.571-1.662 1.523-4.175 2.733-7.855 2.733-3.681 0-6.196-1.21-7.856-2.733-1.93-1.747-3.278-4.433-3.278-7.57 0-3.179 1.348-5.866 3.278-7.615 1.66-1.521 4.175-2.732 7.856-2.732 3.68 0 6.194 1.21 7.855 2.732zm-2.38 7.614c0-3.044-2.333-5.508-5.475-5.508-3.143 0-5.477 2.464-5.477 5.508 0 2.957 2.289 5.465 5.477 5.465 3.185 0 5.476-2.508 5.476-5.465zM52.672.503c3.247 0 5.927 2.673 5.927 5.913 0 3.239-2.68 5.912-5.927 5.912-3.246 0-5.925-2.673-5.925-5.912 0-3.24 2.68-5.913 5.925-5.913zM38.202 2.253c2.285 0 4.172 1.881 4.172 4.163s-1.886 4.163-4.172 4.163c-2.287 0-4.174-1.881-4.174-4.163.001-2.282 1.887-4.163 4.174-4.163zM27.62 4.093a2.34 2.34 0 0 1 2.329 2.323 2.34 2.34 0 0 1-2.329 2.322 2.34 2.34 0 0 1-2.328-2.322 2.338 2.338 0 0 1 2.328-2.323zM71.456 6.416c0 2.281-1.886 4.162-4.173 4.162-2.285 0-4.173-1.88-4.173-4.162s1.887-4.164 4.173-4.164 4.173 1.882 4.173 4.164zM80.193 6.416a2.34 2.34 0 0 1-2.329 2.322 2.34 2.34 0 0 1-2.328-2.322 2.338 2.338 0 0 1 2.328-2.323 2.34 2.34 0 0 1 2.33 2.323zM49.935 17.882h5.476v19.395h-5.476zM75.253 23.795c-1.167-1.076-2.605-1.702-4.49-1.702-3.635 0-5.476 2.643-5.476 5.464 0 3.18 2.38 5.51 5.656 5.51 1.212 0 2.828-.358 4.31-1.704v5.332c-1.078.537-2.785 1.21-5.028 1.21-3.054 0-5.745-1.165-7.498-2.822-1.48-1.39-3.096-3.807-3.096-7.436 0-3.404 1.39-6.135 3.367-7.883 2.378-2.105 5.116-2.51 7.002-2.51 2.02 0 3.68.405 5.253 1.166v5.375zM98.464 31.858c-.585 1.433-2.784 6.046-9.563 6.046-3.142 0-5.52-.895-7.451-2.732-2.155-2.015-3.052-4.524-3.052-7.571 0-3.852 1.57-6.225 2.962-7.615 2.29-2.237 4.984-2.731 7.317-2.731 3.952 0 6.24 1.567 7.586 3.18 2.065 2.462 2.335 5.51 2.335 7.614v.449H84.054c0 1.164.314 2.418.942 3.27.584.805 1.795 1.836 3.906 1.836 2.065 0 3.637-.985 4.533-2.553l5.029.807zm-5.03-6.854c-.448-2.642-2.601-3.898-4.623-3.898-2.02 0-4.13 1.3-4.578 3.898h9.201zM102.82 17.882h5.475v2.51c1.033-1.435 2.874-3.137 6.017-3.137 1.706 0 4.219.494 5.746 2.375 1.346 1.656 1.525 3.584 1.525 5.464v12.183h-5.475v-10.57c0-1.076-.047-2.778-1.033-3.809-.853-.894-2.021-.983-2.559-.983-1.437 0-2.558.492-3.368 1.703-.808 1.252-.852 2.642-.852 3.762v9.897h-5.476V17.882z"/>
    </g>
</svg>
