<svg xmlns="http://www.w3.org/2000/svg" version="1.1" xmlns:xlink="http://www.w3.org/1999/xlink"
     xmlns:svgjs="http://svgjs.com/svgjs" width="512" height="512" x="0" y="0" viewBox="0 0 32 32"
     style="enable-background:new 0 0 512 512" xml:space="preserve" class=""><g><path xmlns="http://www.w3.org/2000/svg" id="XMLID_273_" d="m27.526 18.036-.526-.304c-.626-.361-1-1.009-1-1.732s.374-1.371 1-1.732l.526-.304c1.436-.83 1.927-2.662 1.098-4.098l-1-1.732c-.827-1.433-2.666-1.925-4.098-1.098l-.526.303c-.626.362-1.375.362-2 0-.626-.362-1-1.009-1-1.732v-.607c0-1.654-1.346-3-3-3h-2c-1.654 0-3 1.346-3 3v.608c0 .723-.374 1.37-1 1.732-.626.361-1.374.362-2 0l-.526-.304c-1.432-.827-3.271-.335-4.099 1.098l-1 1.732c-.829 1.436-.338 3.269 1.098 4.098l.527.304c.626.361 1 1.009 1 1.732s-.374 1.371-1 1.732l-.526.304c-1.436.829-1.927 2.662-1.098 4.098l1 1.732c.828 1.433 2.667 1.925 4.098 1.098l.526-.303c.626-.363 1.374-.361 2 0 .626.362 1 1.009 1 1.732v.607c0 1.654 1.346 3 3 3h2c1.654 0 3-1.346 3-3v-.608c0-.723.374-1.37 1-1.732.625-.361 1.374-.362 2 0l.526.304c1.432.826 3.271.334 4.098-1.098l1-1.732c.829-1.436.338-3.269-1.098-4.098zm-11.526 2.964c-2.757 0-5-2.243-5-5s2.243-5 5-5 5 2.243 5 5-2.243 5-5 5z" fill="#000000" data-original="#000000"></path></g></svg>
