<svg xmlns="http://www.w3.org/2000/svg" version="1.1" xmlns:xlink="http://www.w3.org/1999/xlink"
     xmlns:svgjs="http://svgjs.com/svgjs" width="512" height="512" x="0" y="0" viewBox="0 0 24 24"
     style="enable-background:new 0 0 512 512" xml:space="preserve" class=""><g><path xmlns="http://www.w3.org/2000/svg" d="m19.5 24h-15c-1.378 0-2.5-1.122-2.5-2.5v-19c0-1.378 1.122-2.5 2.5-2.5h15c1.378 0 2.5 1.122 2.5 2.5v19c0 1.378-1.122 2.5-2.5 2.5zm-15-23c-.827 0-1.5.673-1.5 1.5v19c0 .827.673 1.5 1.5 1.5h15c.827 0 1.5-.673 1.5-1.5v-19c0-.827-.673-1.5-1.5-1.5z" fill="#000000" data-original="#000000" class=""></path><path
        xmlns="http://www.w3.org/2000/svg"
        d="m11.5 10c-.276 0-.5-.224-.5-.5v-.5h-5v.5c0 .276-.224.5-.5.5s-.5-.224-.5-.5v-1c0-.276.224-.5.5-.5h6c.276 0 .5.224.5.5v1c0 .276-.224.5-.5.5z"
        fill="#000000" data-original="#000000" class=""></path><path xmlns="http://www.w3.org/2000/svg"
                                                                     d="m8.5 15c-.276 0-.5-.224-.5-.5v-6c0-.276.224-.5.5-.5s.5.224.5.5v6c0 .276-.224.5-.5.5z"
                                                                     fill="#000000" data-original="#000000"
                                                                     class=""></path><path
        xmlns="http://www.w3.org/2000/svg"
        d="m9.5 15h-2c-.276 0-.5-.224-.5-.5s.224-.5.5-.5h2c.276 0 .5.224.5.5s-.224.5-.5.5z" fill="#000000"
        data-original="#000000" class=""></path><path xmlns="http://www.w3.org/2000/svg"
                                                      d="m18.5 9h-4c-.276 0-.5-.224-.5-.5s.224-.5.5-.5h4c.276 0 .5.224.5.5s-.224.5-.5.5z"
                                                      fill="#000000" data-original="#000000" class=""></path><path
        xmlns="http://www.w3.org/2000/svg"
        d="m18.5 12h-4c-.276 0-.5-.224-.5-.5s.224-.5.5-.5h4c.276 0 .5.224.5.5s-.224.5-.5.5z" fill="#000000"
        data-original="#000000" class=""></path><path xmlns="http://www.w3.org/2000/svg"
                                                      d="m18.5 15h-4c-.276 0-.5-.224-.5-.5s.224-.5.5-.5h4c.276 0 .5.224.5.5s-.224.5-.5.5z"
                                                      fill="#000000" data-original="#000000" class=""></path><path
        xmlns="http://www.w3.org/2000/svg"
        d="m18.5 18h-13c-.276 0-.5-.224-.5-.5s.224-.5.5-.5h13c.276 0 .5.224.5.5s-.224.5-.5.5z" fill="#000000"
        data-original="#000000" class=""></path><path xmlns="http://www.w3.org/2000/svg"
                                                      d="m18.5 21h-13c-.276 0-.5-.224-.5-.5s.224-.5.5-.5h13c.276 0 .5.224.5.5s-.224.5-.5.5z"
                                                      fill="#000000" data-original="#000000" class=""></path></g></svg>
